<?xml version="1.0" encoding="UTF-8" standalone="no" ?>
<!DOCTYPE svg PUBLIC "-//W3C//DTD SVG 1.1//EN" "http://www.w3.org/Graphics/SVG/1.1/DTD/svg11.dtd">
<svg xmlns="http://www.w3.org/2000/svg" xmlns:xlink="http://www.w3.org/1999/xlink" version="1.1" width="1080" height="1080" viewBox="0 0 1080 1080" xml:space="preserve">
<desc>Created with Fabric.js 5.2.4</desc>
<defs>
</defs>
<rect x="0" y="0" width="100%" height="100%" fill="transparent"></rect>
<g transform="matrix(1 0 0 1 540 540)" id="81d8abf5-ff23-400f-8897-7d7ffe4d3469"  >
<rect style="stroke: none; stroke-width: 1; stroke-dasharray: none; stroke-linecap: butt; stroke-dashoffset: 0; stroke-linejoin: miter; stroke-miterlimit: 4; fill: rgb(67,134,252); fill-rule: nonzero; opacity: 1;" vector-effect="non-scaling-stroke"  x="-540" y="-540" rx="0" ry="0" width="1080" height="1080" />
</g>
<g transform="matrix(1 0 0 1 540 540)" id="e62389d0-1d6c-443d-af69-196e46818e71"  >
</g>
<g transform="matrix(0 0 0 0 0 0)"  >
<g style=""   >
</g>
</g>
<g transform="matrix(0 0 0 0 0 0)"  >
<g style=""   >
</g>
</g>
<g transform="matrix(4.63 0 0 4.63 256.59 577.3)"  >
<path style="stroke: none; stroke-width: 1; stroke-dasharray: none; stroke-linecap: butt; stroke-dashoffset: 0; stroke-linejoin: miter; stroke-miterlimit: 4; fill: rgb(2,166,54); fill-rule: nonzero; opacity: 1;" vector-effect="non-scaling-stroke"  transform=" translate(-19.86, -56.26)" d="M 0 0 C 1.01513672 -0.01836914 1.01513672 -0.01836914 2.05078125 -0.03710938 C 5.76357044 -0.04809396 7.32983076 0.07405384 10.5 2.1875 C 10.36980469 2.77917969 10.23960938 3.37085938 10.10546875 3.98046875 C 9.67308227 6.45759877 9.3862442 8.67223292 9.5 11.1875 C 11.70913543 14.23225302 11.70913543 14.23225302 14.5 16.1875 C 14.83 16.5175 15.16 16.8475 15.5 17.1875 C 20.82673036 17.52606828 20.82673036 17.52606828 25.5 15.1875 C 24.75640327 9.63696714 24.75640327 9.63696714 23.5 4.1875 C 29.28898419 3.98075056 33.92932723 4.59587921 39.5 6.1875 C 39.54898438 7.23550781 39.59796875 8.28351562 39.6484375 9.36328125 C 39.72348143 10.74221354 39.79902857 12.1211185 39.875 13.5 C 39.9059375 14.19029297 39.936875 14.88058594 39.96875 15.59179688 C 40.18124919 19.25740789 40.41933861 21.06650792 42.5 24.1875 C 45.82461916 24.60805768 49.08438254 24.62746172 52.43359375 24.68359375 C 55.5 25.1875 55.5 25.1875 57.41015625 27.22265625 C 57.94962891 28.19525391 57.94962891 28.19525391 58.5 29.1875 C 56.9375 31.25 56.9375 31.25 54.5 33.1875 C 51 33 51 33 47.5 32.1875 C 46.695625 32.001875 45.89125 31.81625 45.0625 31.625 C 44.546875 31.480625 44.03125 31.33625 43.5 31.1875 C 41.51192606 37.15172183 42.20188957 42.44222393 44.5 48.1875 C 41.86 49.1775 39.22 50.1675 36.5 51.1875 C 38.20130766 51.1875 39.87646972 50.90159908 41.5625 50.6875 C 43.5115625 50.44 43.5115625 50.44 45.5 50.1875 C 49.37798336 56.78007172 51.80874935 61.31439159 51.5 69.1875 C 49.85 69.1875 48.2 69.1875 46.5 69.1875 C 46.17 68.1975 45.84 67.2075 45.5 66.1875 C 43.47954558 66.78933749 41.47888961 67.46056096 39.5 68.1875 C 37.97153339 71.24443322 38.26757555 73.81734547 38.5 77.1875 C 39.59987512 79.48559773 39.59987512 79.48559773 41.5 81.1875 C 43.94761905 81.5586155 43.94761905 81.5586155 46.5625 81.25 C 49.22265625 81.03515625 49.22265625 81.03515625 51.5 81.1875 C 53.99118953 84.9242843 53.7065226 86.93201819 53.625 91.375 C 53.60695313 92.64730469 53.58890625 93.91960937 53.5703125 95.23046875 C 53.54710938 96.20628906 53.52390625 97.18210937 53.5 98.1875 C 52.01886719 98.06181641 52.01886719 98.06181641 50.5078125 97.93359375 C 49.22648437 97.83175781 47.94515625 97.72992188 46.625 97.625 C 45.34882812 97.52058594 44.07265625 97.41617188 42.7578125 97.30859375 C 39.61356058 96.93066633 39.61356058 96.93066633 37.5 98.1875 C 37.644375 98.868125 37.78875 99.54875 37.9375 100.25 C 38.57345699 103.57110874 39.18216984 106.81850032 39.5 110.1875 C 37.5 112.1875 37.5 112.1875 34.625 112.5625 C 31.5 112.1875 31.5 112.1875 29.125 110.875 C 26.52594424 106.57656162 27.19594451 102.08617185 27.5 97.1875 C 22.39103477 94.63301738 14.97763477 96.40498075 9.5 97.1875 C 4.90774487 84.70230638 4.90774487 84.70230638 5.5 78.1875 C 6.386875 78.538125 7.27375 78.88875 8.1875 79.25 C 11.5956566 80.21457262 13.20432364 80.37760535 16.5 79.1875 C 18.85618542 76.30150612 18.85618542 76.30150612 18.3125 72.6875 C 17.39863075 68.70112171 17.39863075 68.70112171 14.5 66.1875 C 11.98710325 65.82536432 11.98710325 65.82536432 9.3125 66 C 8.41144531 66.02707031 7.51039062 66.05414063 6.58203125 66.08203125 C 5.55142578 66.13423828 5.55142578 66.13423828 4.5 66.1875 C 1.2508056 61.01949002 2.38234305 55.07034726 2.5 49.1875 C 7.78 49.1875 13.06 49.1875 18.5 49.1875 C 18.17 47.5375 17.84 45.8875 17.5 44.1875 C 17.15596692 41.85572025 16.82050798 39.52262959 16.5 37.1875 C 15.4187609 43.24800614 15.4187609 43.24800614 16.5 49.1875 C 10.97322267 49.38142201 6.74385089 48.9354503 1.5 47.1875 C 0.51 43.2275 -0.48 39.2675 -1.5 35.1875 C -2.82 34.8575 -4.14 34.5275 -5.5 34.1875 C -5.995 34.6825 -5.995 34.6825 -6.5 35.1875 C -10.81418769 35.68529089 -12.83461577 35.65468467 -16.4375 33.125 C -18.99322651 29.48502588 -19.06551375 27.55003463 -18.5 23.1875 C -17.51 21.7025 -17.51 21.7025 -16.5 20.1875 C -13.375 20.70833333 -10.25 21.22916667 -7.125 21.75 C -5.825625 21.9665625 -5.825625 21.9665625 -4.5 22.1875 C -4.13086695 17.11192054 -5.24763142 13.96309243 -7.5 9.4375 C -10.5 3.35416667 -10.5 3.35416667 -10.5 1.1875 C -6.94709436 0.00319812 -3.69749544 0.00352142 0 0 Z" stroke-linecap="round" />
</g>
<g transform="matrix(4.63 0 0 4.63 861.7 693.79)"  >
<path style="stroke: none; stroke-width: 1; stroke-dasharray: none; stroke-linecap: butt; stroke-dashoffset: 0; stroke-linejoin: miter; stroke-miterlimit: 4; fill: rgb(127,1,128); fill-rule: nonzero; opacity: 1;" vector-effect="non-scaling-stroke"  transform=" translate(-4.5, -35.72)" d="M 0 0 C 0.495 0.495 0.99 0.99 1.5 1.5 C 0.625 7.25 0.625 7.25 -0.5 9.5 C -0.85032356 14.84243433 -0.9561069 18.14786539 2.5 22.5 C 5.33573263 24.83775029 5.33573263 24.83775029 8.625 24.25 C 9.57375 24.0025 10.5225 23.755 11.5 23.5 C 13.03266582 20.43466836 12.60276471 17.23245728 12.5625 13.875 C 12.55798828 13.16859375 12.55347656 12.4621875 12.54882812 11.734375 C 12.53703875 9.98954725 12.51910324 8.244763 12.5 6.5 C 21.9504144 7.70132386 21.9504144 7.70132386 25.90625 10.2421875 C 29.14822569 14.8349864 28.38866458 20.9122591 28.3671875 26.34765625 C 28.37143542 29.55978947 28.62477433 31.77575483 30.5 34.5 C 31.77875 34.29375 33.0575 34.0875 34.375 33.875 C 36.5546875 33.5234375 36.5546875 33.5234375 38.5 33.5 C 45.2804878 40.2804878 45.2804878 40.2804878 46.0625 44.625 C 45.5 47.5 45.5 47.5 43.875 49.9375 C 41.5 51.5 41.5 51.5 38.4375 51.375 C 35.5 50.5 35.5 50.5 32.5 48.5 C 31.51 48.5 30.52 48.5 29.5 48.5 C 29.12911556 54.95613662 29.7211745 60.24903571 31.84375 66.37109375 C 32.5 68.5 32.5 68.5 32.5 71.5 C 25.37049629 73.40120099 18.86259293 73.72424141 11.5 73.5 C 11.83 72.654375 12.16 71.80875 12.5 70.9375 C 13.6108241 67.11904214 13.99420425 64.45363402 13.5 60.5 C 10.79399733 56.47965317 8.0197343 53.37403617 3.5 51.5 C 0.43696239 51.6225215 -1.60385727 51.90536324 -4.171875 53.609375 C -6.22630023 56.53390974 -5.74753215 59.11481416 -5.625 62.625 C -5.55472491 64.91596784 -5.50586199 67.20796207 -5.5 69.5 C -7.17888427 71.17888427 -9.19926893 70.71165448 -11.5 70.75 C -16.98375957 70.72132675 -21.46122568 69.59015824 -26.5 67.5 C -25.59901333 63.27303062 -24.69882603 59.11856987 -23.375 55 C -22.31181913 50.74727652 -22.3222278 46.85541884 -22.5 42.5 C -26.41736581 41.3299903 -29.47959015 41.80415983 -33.5 42.5 C -36.05602613 39.94397387 -36.51760427 38.38263823 -37.0625 34.75 C -36.89411743 30.27102371 -34.91767914 27.48499522 -32.30078125 23.96875 C -30.5 22.5 -30.5 22.5 -27.92578125 22.15625 C -24.68712779 22.61518962 -23.68914947 24.16490723 -21.5 26.5 C -20.51 26.5 -19.52 26.5 -18.5 26.5 C -16.90901514 22.95796529 -16.22185436 20.07284927 -16.0859375 16.19921875 C -16.04726562 15.22275391 -16.00859375 14.24628906 -15.96875 13.24023438 C -15.9378125 12.23283203 -15.906875 11.22542969 -15.875 10.1875 C -15.83632812 9.16076172 -15.79765625 8.13402344 -15.7578125 7.07617188 C -15.66385103 4.55095735 -15.5781846 2.02574408 -15.5 -0.5 C -4.57795032 -2.74677019 -4.57795032 -2.74677019 0 0 Z" stroke-linecap="round" />
</g>
<g transform="matrix(4.63 0 0 4.63 508.97 486.53)"  >
<path style="stroke: none; stroke-width: 1; stroke-dasharray: none; stroke-linecap: butt; stroke-dashoffset: 0; stroke-linejoin: miter; stroke-miterlimit: 4; fill: rgb(252,127,2); fill-rule: nonzero; opacity: 1;" vector-effect="non-scaling-stroke"  transform=" translate(2.16, -40.47)" d="M 0 0 C 3.0625 1.6875 3.0625 1.6875 5 4 C 5.58763244 8.1134271 5.33043558 9.50434664 3 13 C 3 13.99 3 14.98 3 16 C 6.19457351 17.88414642 8.51502629 18.23819737 12.203125 18.1953125 C 13.1828125 18.18886719 14.1625 18.18242188 15.171875 18.17578125 C 16.18765625 18.15902344 17.2034375 18.14226563 18.25 18.125 C 19.28125 18.11597656 20.3125 18.10695313 21.375 18.09765625 C 23.91690287 18.07412011 26.4583328 18.04124023 29 18 C 32.66026871 35.67946257 32.66026871 35.67946257 30 41 C 25.28971963 39.1682243 25.28971963 39.1682243 23.0625 37.875 C 20.13872915 36.63461237 18.14176601 36.54182579 15 37 C 12.40878096 39.0098357 12.40878096 39.0098357 11 42 C 10.9201116 45.83464331 11.7523499 47.62852486 13.875 50.8125 C 17.85677606 53.59974324 20.9002399 53.68075764 25.671875 53.859375 C 28 54 28 54 29 55 C 29.48067514 61.98655725 29.0571135 68.31438112 27 75 C 23.47426641 73.94227992 20.29600453 72.67086013 17.0625 70.9375 C 13.32394676 68.99979129 10.1811288 68.3484274 6 68 C 6.165 68.66 6.33 69.32 6.5 70 C 7.12183299 73.73099794 7.06408926 77.21873378 7 81 C 4.875 81.75 4.875 81.75 2 82 C -2.74623299 79.57845256 -5.72213181 76.82908056 -8 72 C -7.87228604 69.5940338 -7.5195254 67.3956265 -6.96875 65.05078125 C -6.78509467 62.88789493 -6.78509467 62.88789493 -8.4453125 61.2890625 C -11.3317328 59.83261189 -13.89826445 59.56040634 -17.09399414 59.2800293 C -26.74238855 58.3599052 -26.74238855 58.3599052 -30.44921875 54.3515625 C -33.12044016 49.11260526 -34.27322496 44.89637091 -34 39 C -30.26512223 39.4979837 -28.18762365 39.87491756 -25 42 C -21.45812169 42.33338596 -21.45812169 42.33338596 -18 42 C -15.73701563 40.13036002 -15.73701563 40.13036002 -15.5625 37.1875 C -16.13884748 32.98839696 -17.80301768 31.66415193 -21 29 C -24.26066418 27.36966791 -27.86484808 27.6567576 -31.46875 27.4765625 C -32.72171875 27.24066406 -32.72171875 27.24066406 -34 27 C -36.08962236 23.86556646 -36.25367554 23.12996308 -36.1875 19.5625 C -36.18105469 18.80066406 -36.17460938 18.03882812 -36.16796875 17.25390625 C -36.00451771 15.06062143 -35.60116513 13.11129193 -35 11 C -34.42894531 11.13277344 -33.85789062 11.26554687 -33.26953125 11.40234375 C -26.20671195 12.94066846 -19.20860655 13.57064726 -12 14 C -12.11859375 13.16855469 -12.2371875 12.33710937 -12.359375 11.48046875 C -12.48828125 10.39378906 -12.6171875 9.30710937 -12.75 8.1875 C -12.88921875 7.10855469 -13.0284375 6.02960937 -13.171875 4.91796875 C -13 2 -13 2 -11.29296875 0.109375 C -7.42449568 -1.76225422 -4.06103054 -1.05500082 0 0 Z" stroke-linecap="round" />
</g>
<g transform="matrix(4.63 0 0 4.63 256.59 434.41)"  >
<path style="stroke: none; stroke-width: 1; stroke-dasharray: none; stroke-linecap: butt; stroke-dashoffset: 0; stroke-linejoin: miter; stroke-miterlimit: 4; fill: rgb(252,1,2); fill-rule: nonzero; opacity: 1;" vector-effect="non-scaling-stroke"  transform=" translate(-19.86, -25.4)" d="M 0 0 C 1.01513672 -0.01836914 1.01513672 -0.01836914 2.05078125 -0.03710938 C 5.76357044 -0.04809396 7.32983076 0.07405384 10.5 2.1875 C 10.36980469 2.77917969 10.23960938 3.37085938 10.10546875 3.98046875 C 9.67308227 6.45759877 9.3862442 8.67223292 9.5 11.1875 C 11.70913543 14.23225302 11.70913543 14.23225302 14.5 16.1875 C 14.83 16.5175 15.16 16.8475 15.5 17.1875 C 20.82673036 17.52606828 20.82673036 17.52606828 25.5 15.1875 C 24.75640327 9.63696714 24.75640327 9.63696714 23.5 4.1875 C 29.28898419 3.98075056 33.92932723 4.59587921 39.5 6.1875 C 39.54898438 7.23550781 39.59796875 8.28351562 39.6484375 9.36328125 C 39.72348143 10.74221354 39.79902857 12.1211185 39.875 13.5 C 39.9059375 14.19029297 39.936875 14.88058594 39.96875 15.59179688 C 40.18124919 19.25740789 40.41933861 21.06650792 42.5 24.1875 C 45.82461916 24.60805768 49.08438254 24.62746172 52.43359375 24.68359375 C 55.5 25.1875 55.5 25.1875 57.41015625 27.22265625 C 57.94962891 28.19525391 57.94962891 28.19525391 58.5 29.1875 C 56.9375 31.25 56.9375 31.25 54.5 33.1875 C 51 33 51 33 47.5 32.1875 C 46.695625 32.001875 45.89125 31.81625 45.0625 31.625 C 44.546875 31.480625 44.03125 31.33625 43.5 31.1875 C 41.51192606 37.15172183 42.20188957 42.44222393 44.5 48.1875 C 38.82010626 50.67868146 35.55525768 51.57516322 29.5 50.1875 C 29.54640625 49.52363281 29.5928125 48.85976562 29.640625 48.17578125 C 29.81661883 43.87021784 29.92625754 40.99083152 27.875 37.125 C 24.98287826 34.76563753 23.22450454 34.1875 19.5 34.1875 C 17.50488226 35.01249353 17.50488226 35.01249353 16.5 37.1875 C 15.5442726 41.251494 15.00286671 45.19514457 16.5 49.1875 C 10.97322267 49.38142201 6.74385089 48.9354503 1.5 47.1875 C 0.51 43.2275 -0.48 39.2675 -1.5 35.1875 C -2.82 34.8575 -4.14 34.5275 -5.5 34.1875 C -5.995 34.6825 -5.995 34.6825 -6.5 35.1875 C -10.81418769 35.68529089 -12.83461577 35.65468467 -16.4375 33.125 C -18.99322651 29.48502588 -19.06551375 27.55003463 -18.5 23.1875 C -17.51 21.7025 -17.51 21.7025 -16.5 20.1875 C -13.375 20.70833333 -10.25 21.22916667 -7.125 21.75 C -5.825625 21.9665625 -5.825625 21.9665625 -4.5 22.1875 C -4.13086695 17.11192054 -5.24763142 13.96309243 -7.5 9.4375 C -10.5 3.35416667 -10.5 3.35416667 -10.5 1.1875 C -6.94709436 0.00319812 -3.69749544 0.00352142 0 0 Z" stroke-linecap="round" />
</g>
<g transform="matrix(4.63 0 0 4.63 947.43 820.95)"  >
<path style="stroke: none; stroke-width: 1; stroke-dasharray: none; stroke-linecap: butt; stroke-dashoffset: 0; stroke-linejoin: miter; stroke-miterlimit: 4; fill: rgb(64,98,182); fill-rule: nonzero; opacity: 1;" vector-effect="non-scaling-stroke"  transform=" translate(6.5, -15.66)" d="M 0 0 C 4.82382465 0.26799026 6.86565605 2.50744532 10 6 C 7.69 5.34 5.38 4.68 3 4 C 3.96397844 10.67174555 5.38107917 16.56892461 8.1953125 22.7109375 C 9.09475117 25.26953489 9.14271059 27.30752684 9 30 C 3.57173936 30.67252787 -1.84317503 31.11445291 -7.3125 31.25 C -8.27800781 31.27578125 -9.24351562 31.3015625 -10.23828125 31.328125 C -14.46928698 30.82543125 -17.0967729 28.71307402 -20.375 26.125 C -22 24 -22 24 -21.8125 21.375 C -21 19 -21 19 -20 17 C -19.60196365 12.02916876 -19.60196365 12.02916876 -21.5 7.5625 C -21.995 7.046875 -22.49 6.53125 -23 6 C -19.17559618 7.50244436 -17.16527042 9.52010111 -15 13 C -14.33220404 18.24696826 -15.35066656 21.47405537 -18 26 C -10.98475852 25.44210432 -3.99017804 24.81552077 3 24 C 2.71125 23.17757812 2.4225 22.35515625 2.125 21.5078125 C -0.16965051 14.6079259 -1.952989 8.31145661 -1 1 C -0.67 0.67 -0.34 0.34 0 0 Z" stroke-linecap="round" />
</g>
<g transform="matrix(4.63 0 0 4.63 375.91 507.55)"  >
<path style="stroke: none; stroke-width: 1; stroke-dasharray: none; stroke-linecap: butt; stroke-dashoffset: 0; stroke-linejoin: miter; stroke-miterlimit: 4; fill: rgb(72,115,198); fill-rule: nonzero; opacity: 1;" vector-effect="non-scaling-stroke"  transform=" translate(9.89, -16)" d="M 0 0 C 3.16115776 1.36983503 3.9927092 1.9890638 6 5 C 6.32162076 8.0875593 6.48724515 10.14015561 4.9375 12.875 C 1.87480351 14.6533399 -0.53076932 14.35888593 -4 14 C -6.6875 12.5625 -6.6875 12.5625 -9 11 C -10.32391729 10.63103944 -11.65684661 10.29125221 -13 10 C -12.40964368 12.70579981 -11.74200319 15.33493528 -11 18 C -10.81308594 18.81339844 -10.62617187 19.62679687 -10.43359375 20.46484375 C -9.59136142 23.18556286 -8.92347846 24.88015715 -7 27 C -2.69714375 28.38096626 1.49874686 28.79835427 6 29 C 6 29.33 6 29.66 6 30 C 1.83861737 30.08159574 -1.9472484 29.98248524 -6 29 C -6.33 29.99 -6.66 30.98 -7 32 C -7.99 30.02 -8.98 28.04 -10 26 C -14.95 26.33 -19.9 26.66 -25 27 C -25.33 26.34 -25.66 25.68 -26 25 C -24.4840625 25.061875 -24.4840625 25.061875 -22.9375 25.125 C -18.81923948 24.99426157 -15.88169467 24.26749214 -12 23 C -12.33 22.175 -12.66 21.35 -13 20.5 C -14.19114665 16.33098671 -14.28354541 13.3240675 -14 9 C -13.34 8.01 -12.68 7.02 -12 6 C -11.24074219 6.10699219 -10.48148438 6.21398437 -9.69921875 6.32421875 C -8.20841797 6.50404297 -8.20841797 6.50404297 -6.6875 6.6875 C -5.70136719 6.81511719 -4.71523437 6.94273438 -3.69921875 7.07421875 C -0.95631232 7.26981182 -0.95631232 7.26981182 0.85546875 5.51953125 C 1.23316406 5.01808594 1.61085938 4.51664062 2 4 C 1.34 2.68 0.68 1.36 0 0 Z" stroke-linecap="round" />
</g>
<g transform="matrix(4.63 0 0 4.63 778.37 793.69)"  >
<path style="stroke: none; stroke-width: 1; stroke-dasharray: none; stroke-linecap: butt; stroke-dashoffset: 0; stroke-linejoin: miter; stroke-miterlimit: 4; fill: rgb(67,89,172); fill-rule: nonzero; opacity: 1;" vector-effect="non-scaling-stroke"  transform=" translate(-9, -15.78)" d="M 0 0 C 1 1 1 1 1.375 4.5625 C 1.35089998 11.98530483 -1.61568234 19.05993254 -4 26 C 2.8165735 27.7879537 8.96517526 28.23668569 16 28 C 15.93039063 27.04738281 15.86078125 26.09476563 15.7890625 25.11328125 C 15.36035536 15.1815658 15.36035536 15.1815658 17.125 11.921875 C 19.79271004 9.50426278 21.76226964 8.99551452 25.3125 9.0625 C 28 10 28 10 29 12 C 27.906875 12.0825 26.81375 12.165 25.6875 12.25 C 22.06767279 12.65286146 22.06767279 12.65286146 20.2421875 14.6328125 C 18.54112257 17.87446453 18.97843561 20.02561015 19.4375 23.625 C 19.87109375 27.1015625 19.87109375 27.1015625 20 30 C 18 32 18 32 14.3125 32.4375 C 7.22654582 32.33295314 0.5691853 29.42341487 -6 27 C -4.74549655 21.11348382 -3.29079118 15.35099589 -1.5859375 9.578125 C -0.81531575 6.62803437 -0.81531575 6.62803437 -1 2 C -4.3 2 -7.6 2 -11 2 C -4.2 -1.4 -4.2 -1.4 0 0 Z" stroke-linecap="round" />
</g>
<g transform="matrix(4.63 0 0 4.63 959.03 819.33)"  >
<path style="stroke: none; stroke-width: 1; stroke-dasharray: none; stroke-linecap: butt; stroke-dashoffset: 0; stroke-linejoin: miter; stroke-miterlimit: 4; fill: rgb(69,130,249); fill-rule: nonzero; opacity: 1;" vector-effect="non-scaling-stroke"  transform=" translate(4, -15.31)" d="M 0 0 C 2.0625 0.4375 2.0625 0.4375 4 1 C 3.66871094 1.58007812 3.33742187 2.16015625 2.99609375 2.7578125 C -0.12193165 9.77642653 4.44187235 18.56251948 6.94140625 25.25390625 C 7.29074219 26.16011719 7.64007813 27.06632812 8 28 C -10.75 31.5 -10.75 31.5 -16 28 C -16 27.67 -16 27.34 -16 27 C -13.96040523 26.49161436 -11.91820862 25.99366114 -9.875 25.5 C -8.73804688 25.2215625 -7.60109375 24.943125 -6.4296875 24.65625 C -3.18533302 24.03546235 -0.29185543 23.87993232 3 24 C 2.71125 23.17757812 2.4225 22.35515625 2.125 21.5078125 C -0.16965051 14.6079259 -1.952989 8.31145661 -1 1 C -0.67 0.67 -0.34 0.34 0 0 Z" stroke-linecap="round" />
</g>
<g transform="matrix(4.63 0 0 4.63 1040.82 738.96)"  >
<path style="stroke: none; stroke-width: 1; stroke-dasharray: none; stroke-linecap: butt; stroke-dashoffset: 0; stroke-linejoin: miter; stroke-miterlimit: 4; fill: rgb(64,118,218); fill-rule: nonzero; opacity: 1;" vector-effect="non-scaling-stroke"  transform=" translate(-7.66, -9.96)" d="M 0 0 C 3.07877133 -0.4505519 5.21010698 -0.50042912 7.88671875 1.1953125 C 12.04381224 4.66391462 14.73328488 7.43953485 15.3125 13 C 14.95509946 16.43104521 14.65005689 17.77737164 12 20 C 8.3125 20.25 8.3125 20.25 5 20 C 4.34 18.68 3.68 17.36 3 16 C 3.804375 15.71125 4.60875 15.4225 5.4375 15.125 C 8.1326468 14.26737432 8.1326468 14.26737432 9 12 C 9.39116409 8.40129038 9.47841359 6.65560381 7.3125 3.6875 C 4.80401508 1.85698398 3.05917167 1.33990796 0 1 C 0 0.67 0 0.34 0 0 Z" stroke-linecap="round" />
</g>
<g transform="matrix(4.63 0 0 4.63 194.77 537.65)"  >
<path style="stroke: none; stroke-width: 1; stroke-dasharray: none; stroke-linecap: butt; stroke-dashoffset: 0; stroke-linejoin: miter; stroke-miterlimit: 4; fill: rgb(73,98,144); fill-rule: nonzero; opacity: 1;" vector-effect="non-scaling-stroke"  transform=" translate(-12, -14.5)" d="M 0 0 C 1.9375 0.25 1.9375 0.25 4 1 C 6.85231222 5.27846832 6.60225696 8.895631 7 14 C 14.425 14.99 14.425 14.99 22 16 C 21.34 14.68 20.68 13.36 20 12 C 19.93692407 9.16683954 20.44617326 6.8152859 21 4 C 21.66 3.67 22.32 3.34 23 3 C 23.144375 4.216875 23.28875 5.43375 23.4375 6.6875 C 23.73881661 9.15043576 24.10773279 11.50634412 24.625 13.9375 C 24.74875 14.618125 24.8725 15.29875 25 16 C 24 17 24 17 21.671875 17.1328125 C 20.70765625 17.13023438 19.7434375 17.12765625 18.75 17.125 C 17.79609375 17.12757812 16.8421875 17.13015625 15.859375 17.1328125 C 13 17 13 17 8 16 C 8 20.29 8 24.58 8 29 C 7.67 29 7.34 29 7 29 C 6.87882812 27.70964844 6.75765625 26.41929688 6.6328125 25.08984375 C 6.46387992 23.37236253 6.29459013 21.65491642 6.125 19.9375 C 6.04636719 19.08994141 5.96773437 18.24238281 5.88671875 17.36914062 C 5.38460268 12.36729205 4.69808394 7.7446463 3 3 C 1.01432266 1.50256112 1.01432266 1.50256112 -1 1 C -0.67 0.67 -0.34 0.34 0 0 Z" stroke-linecap="round" />
</g>
<g transform="matrix(4.63 0 0 4.63 829.34 813.48)"  >
<path style="stroke: none; stroke-width: 1; stroke-dasharray: none; stroke-linecap: butt; stroke-dashoffset: 0; stroke-linejoin: miter; stroke-miterlimit: 4; fill: rgb(66,112,212); fill-rule: nonzero; opacity: 1;" vector-effect="non-scaling-stroke"  transform=" translate(8, -10.05)" d="M 0 0 C 0.33 0.66 0.66 1.32 1 2 C -0.093125 2.0825 -1.18625 2.165 -2.3125 2.25 C -5.93045121 2.65257303 -5.93045121 2.65257303 -7.75 4.625 C -9.4647919 7.88310462 -9.08667241 10.12115987 -8.6875 13.75 C -8.56761719 14.92046875 -8.44773438 16.0909375 -8.32421875 17.296875 C -8.21722656 18.18890625 -8.11023438 19.0809375 -8 20 C -10.97 20.33 -13.94 20.66 -17 21 C -14 19 -14 19 -12 18 C -12.10441406 16.57107422 -12.10441406 16.57107422 -12.2109375 15.11328125 C -12.63964464 5.1815658 -12.63964464 5.1815658 -10.875 1.921875 C -7.34354031 -1.27851035 -4.36000092 -1.52093055 0 0 Z" stroke-linecap="round" />
</g>
<g transform="matrix(4.63 0 0 4.63 375.41 528.39)"  >
<path style="stroke: none; stroke-width: 1; stroke-dasharray: none; stroke-linecap: butt; stroke-dashoffset: 0; stroke-linejoin: miter; stroke-miterlimit: 4; fill: rgb(80,101,137); fill-rule: nonzero; opacity: 1;" vector-effect="non-scaling-stroke"  transform=" translate(-4, -11.5)" d="M 0 0 C 0.99 0.33 1.98 0.66 3 1 C 2.34 1 1.68 1 1 1 C 1.59035632 3.70579981 2.25799681 6.33493528 3 9 C 3.28037109 10.22009766 3.28037109 10.22009766 3.56640625 11.46484375 C 4.40863858 14.18556286 5.07652154 15.88015715 7 18 C 11.30285625 19.38096626 15.49874686 19.79835427 20 20 C 20 20.33 20 20.66 20 21 C 15.83861737 21.08159574 12.0527516 20.98248524 8 20 C 7.67 20.99 7.34 21.98 7 23 C 6.01 21.02 5.02 19.04 4 17 C -0.95 17.33 -5.9 17.66 -11 18 C -11.33 17.34 -11.66 16.68 -12 16 C -10.4840625 16.061875 -10.4840625 16.061875 -8.9375 16.125 C -4.81923948 15.99426157 -1.88169467 15.26749214 2 14 C 1.67 13.175 1.34 12.35 1 11.5 C -0.16782809 7.4126017 -0.1458885 4.23076656 0 0 Z" stroke-linecap="round" />
</g>
<g transform="matrix(4.63 0 0 4.63 366.15 385.72)"  >
<path style="stroke: none; stroke-width: 1; stroke-dasharray: none; stroke-linecap: butt; stroke-dashoffset: 0; stroke-linejoin: miter; stroke-miterlimit: 4; fill: rgb(108,89,121); fill-rule: nonzero; opacity: 1;" vector-effect="non-scaling-stroke"  transform=" translate(-12, -10.7)" d="M 0 0 C 1.60495567 0.11442461 3.20898119 0.24194694 4.8125 0.375 C 5.70582031 0.44460937 6.59914063 0.51421875 7.51953125 0.5859375 C 10 1 10 1 13 3 C 12.01 3 11.02 3 10 3 C 9.97306425 5.12493141 9.95363372 7.24995912 9.9375 9.375 C 9.92589844 10.55835938 9.91429688 11.74171875 9.90234375 12.9609375 C 9.78533407 15.91921521 9.78533407 15.91921521 11 18 C 13.52092173 18.39258939 13.52092173 18.39258939 16.4375 18.5 C 21.77854195 18.77854195 21.77854195 18.77854195 24 21 C 21.89695523 21.1080023 19.79233091 21.18558987 17.6875 21.25 C 15.92986328 21.31960937 15.92986328 21.31960937 14.13671875 21.390625 C 11 21 11 21 9.09375 19.46875 C 7.58465293 16.06250232 7.67805972 12.89712345 7.8125 9.25 C 7.82603516 8.55261719 7.83957031 7.85523438 7.85351562 7.13671875 C 7.8887055 5.42414459 7.94250845 3.71197059 8 2 C 5.36 1.67 2.72 1.34 0 1 C 0 0.67 0 0.34 0 0 Z" stroke-linecap="round" />
</g>
<g transform="matrix(4.63 0 0 4.63 968.31 632.61)"  >
<path style="stroke: none; stroke-width: 1; stroke-dasharray: none; stroke-linecap: butt; stroke-dashoffset: 0; stroke-linejoin: miter; stroke-miterlimit: 4; fill: rgb(64,101,188); fill-rule: nonzero; opacity: 1;" vector-effect="non-scaling-stroke"  transform=" translate(-4, -13)" d="M 0 0 C 1.98 0.66 3.96 1.32 6 2 C 6.06058594 3.22976562 6.12117187 4.45953125 6.18359375 5.7265625 C 6.26805005 7.35938427 6.35269547 8.99219627 6.4375 10.625 C 6.47681641 11.43324219 6.51613281 12.24148437 6.55664062 13.07421875 C 6.78796082 17.45150865 7.16920917 21.68547281 8 26 C 5 24 5 24 4 21 C 3.88874224 19.6277061 3.8226705 18.25138634 3.7890625 16.875 C 3.76070312 16.08609375 3.73234375 15.2971875 3.703125 14.484375 C 3.65104881 12.82835204 3.60677502 11.1720653 3.5703125 9.515625 C 3.539375 8.72671875 3.5084375 7.9378125 3.4765625 7.125 C 3.45674316 6.40570313 3.43692383 5.68640625 3.41650391 4.9453125 C 2.89465472 2.50797705 1.87430853 1.58360707 0 0 Z" stroke-linecap="round" />
</g>
<g transform="matrix(4.63 0 0 4.63 901.13 599.34)"  >
<path style="stroke: none; stroke-width: 1; stroke-dasharray: none; stroke-linecap: butt; stroke-dashoffset: 0; stroke-linejoin: miter; stroke-miterlimit: 4; fill: rgb(68,83,163); fill-rule: nonzero; opacity: 1;" vector-effect="non-scaling-stroke"  transform=" translate(1.88, -10.06)" d="M 0 0 C 3.625 0.25 3.625 0.25 6.625 3.25 C 2.17 2.26 2.17 2.26 -2.375 1.25 C -2.21 1.86875 -2.045 2.4875 -1.875 3.125 C -0.09991145 14.21930342 -0.09991145 14.21930342 -3.0625 18.9375 C -5.375 20.25 -5.375 20.25 -8.125 20 C -8.8675 19.7525 -9.61 19.505 -10.375 19.25 C -9.776875 18.981875 -9.17875 18.71375 -8.5625 18.4375 C -6.22680397 17.16955072 -4.94083478 16.40016962 -3.375 14.25 C -3.26815409 11.0706387 -3.26815409 11.0706387 -3.75 7.625 C -3.98887631 5.50321634 -4.204962 3.37840665 -4.375 1.25 C -3.375 0.25 -3.375 0.25 0 0 Z" stroke-linecap="round" />
</g>
<g transform="matrix(4.63 0 0 4.63 766.8 851.19)"  >
<path style="stroke: none; stroke-width: 1; stroke-dasharray: none; stroke-linecap: butt; stroke-dashoffset: 0; stroke-linejoin: miter; stroke-miterlimit: 4; fill: rgb(66,97,183); fill-rule: nonzero; opacity: 1;" vector-effect="non-scaling-stroke"  transform=" translate(-12.5, -4.19)" d="M 0 0 C 0.66 0 1.32 0 2 0 C 2 0.66 2 1.32 2 2 C 7.3754363 3.30891238 12.63724372 4.27729267 18.15234375 4.75390625 C 20 5 20 5 22 6 C 22.99 6.33 23.98 6.66 25 7 C 24 8 24 8 20.375 8.375 C 13.24659177 8.35189333 6.60234071 5.43564611 0 3 C 0 2.01 0 1.02 0 0 Z" stroke-linecap="round" />
</g>
<g transform="matrix(4.63 0 0 4.63 162.36 537.65)"  >
<path style="stroke: none; stroke-width: 1; stroke-dasharray: none; stroke-linecap: butt; stroke-dashoffset: 0; stroke-linejoin: miter; stroke-miterlimit: 4; fill: rgb(70,98,160); fill-rule: nonzero; opacity: 1;" vector-effect="non-scaling-stroke"  transform=" translate(-5, -14.5)" d="M 0 0 C 1.9375 0.25 1.9375 0.25 4 1 C 6.49283399 4.73925098 6.31914789 7.33362335 6.4609375 11.72265625 C 6.7647524 14.18228373 6.7647524 14.18228373 9.0390625 15.30859375 C 9.68617187 15.53675781 10.33328125 15.76492187 11 16 C 10.01 16 9.02 16 8 16 C 8 20.29 8 24.58 8 29 C 7.67 29 7.34 29 7 29 C 6.87882812 27.70964844 6.75765625 26.41929688 6.6328125 25.08984375 C 6.46387992 23.37236253 6.29459013 21.65491642 6.125 19.9375 C 6.04636719 19.08994141 5.96773437 18.24238281 5.88671875 17.36914062 C 5.38460268 12.36729205 4.69808394 7.7446463 3 3 C 1.01432266 1.50256112 1.01432266 1.50256112 -1 1 C -0.67 0.67 -0.34 0.34 0 0 Z" stroke-linecap="round" />
</g>
<g transform="matrix(4.63 0 0 4.63 889.25 834.11)"  >
<path style="stroke: none; stroke-width: 1; stroke-dasharray: none; stroke-linecap: butt; stroke-dashoffset: 0; stroke-linejoin: miter; stroke-miterlimit: 4; fill: rgb(122,10,136); fill-rule: nonzero; opacity: 1;" vector-effect="non-scaling-stroke"  transform=" translate(1.07, -6.5)" d="M 0 0 C 2 3 2 3 1.75 5.9375 C 1.09911834 8.59526679 0.35855538 10.64517067 -1 13 C -1.99 12.67 -2.98 12.34 -4 12 C -3.33501617 7.61110675 -1.81242323 4.0188515 0 0 Z" stroke-linecap="round" />
</g>
<g transform="matrix(4.63 0 0 4.63 1005.36 693.21)"  >
<path style="stroke: none; stroke-width: 1; stroke-dasharray: none; stroke-linecap: butt; stroke-dashoffset: 0; stroke-linejoin: miter; stroke-miterlimit: 4; fill: rgb(102,40,150); fill-rule: nonzero; opacity: 1;" vector-effect="non-scaling-stroke"  transform=" translate(1.69, -1.77)" d="M 0 0 C 1.093125 0.226875 2.18625 0.45375 3.3125 0.6875 C 3.3125 1.0175 3.3125 1.3475 3.3125 1.6875 C 1.6625 1.6875 0.0125 1.6875 -1.6875 1.6875 C -1.6875 2.3475 -1.6875 3.0075 -1.6875 3.6875 C -3.3375 3.3575 -4.9875 3.0275 -6.6875 2.6875 C -4.58035839 -0.41123767 -3.86755884 -0.32775922 0 0 Z" stroke-linecap="round" />
</g>
<g transform="matrix(4.63 0 0 4.63 565.33 623.37)"  >
<path style="stroke: none; stroke-width: 1; stroke-dasharray: none; stroke-linecap: butt; stroke-dashoffset: 0; stroke-linejoin: miter; stroke-miterlimit: 4; fill: rgb(89,111,151); fill-rule: nonzero; opacity: 1;" vector-effect="non-scaling-stroke"  transform=" translate(-4, -3)" d="M 0 0 C 6.6 0.6 6.6 0.6 9 3 C 6.36 2.67 3.72 2.34 1 2 C 0.67 3.32 0.34 4.64 0 6 C -0.38218767 4.34385343 -0.71395102 2.67542976 -1 1 C -0.67 0.67 -0.34 0.34 0 0 Z" stroke-linecap="round" />
</g>
<g transform="matrix(4.63 0 0 4.63 882.62 632.63)"  >
<path style="stroke: none; stroke-width: 1; stroke-dasharray: none; stroke-linecap: butt; stroke-dashoffset: 0; stroke-linejoin: miter; stroke-miterlimit: 4; fill: rgb(82,64,155); fill-rule: nonzero; opacity: 1;" vector-effect="non-scaling-stroke"  transform=" translate(2.5, -3)" d="M 0 0 C 0.66 0.66 1.32 1.32 2 2 C 0.3125 4.0625 0.3125 4.0625 -2 6 C -4.75 5.75 -4.75 5.75 -7 5 C -6.401875 4.731875 -5.80375 4.46375 -5.1875 4.1875 C -3.02775192 3.01506533 -1.64209744 1.80630718 0 0 Z" stroke-linecap="round" />
</g>
</svg>