<?xml version="1.0" standalone="no"?>
<!DOCTYPE svg PUBLIC "-//W3C//DTD SVG 20010904//EN"
 "http://www.w3.org/TR/2001/REC-SVG-20010904/DTD/svg10.dtd">
<svg version="1.0" xmlns="http://www.w3.org/2000/svg"
 width="64.000000pt" height="64.000000pt" viewBox="0 0 64.000000 64.000000"
 preserveAspectRatio="xMidYMid meet">

<g transform="translate(0.000000,64.000000) scale(0.100000,-0.100000)"
fill="#191970" stroke="none">
<path d="M40 524 c-22 -26 -2 -54 127 -177 102 -97 128 -117 153 -117 25 0 50
19 143 108 l112 107 3 -145 c2 -127 1 -146 -15 -157 -22 -16 -454 -18 -484 -3
-17 10 -19 22 -19 115 0 87 -3 105 -15 105 -12 0 -15 -19 -15 -108 0 -156 -19
-147 290 -147 230 0 249 1 269 19 20 18 21 29 21 206 0 131 -4 190 -12 198 -9
9 -85 12 -279 12 -229 0 -268 -2 -279 -16z m540 -23 c0 -16 -242 -241 -259
-241 -18 0 -261 224 -261 241 0 5 110 9 260 9 147 0 260 -4 260 -9z"/>
</g>
</svg>
